<?xml version="1.0" encoding="utf-8"?>
<!-- Generator: Adobe Illustrator 23.0.3, SVG Export Plug-In . SVG Version: 6.00 Build 0)  -->
<svg version="1.1" id="Layer_1" xmlns="http://www.w3.org/2000/svg" xmlns:xlink="http://www.w3.org/1999/xlink" x="0px" y="0px"
	 viewBox="0 0 326 31" style="enable-background:new 0 0 326 31;" xml:space="preserve">
<style type="text/css">
	.st0{filter:url(#Adobe_OpacityMaskFilter);}
	.st1{fill-rule:evenodd;clip-rule:evenodd;fill:#FFFFFF;}
	.st2{mask:url(#mask-2_1_);fill:#050505;}
	.st3{fill:#050505;}
	.st4{filter:url(#Adobe_OpacityMaskFilter_1_);}
	.st5{mask:url(#mask-4_1_);fill:#050505;}
	.st6{fill:#E74547;}
	.st7{filter:url(#Adobe_OpacityMaskFilter_2_);}
	.st8{mask:url(#mask-6_1_);fill:#E74547;}
</style>
<title>News@Northeastern</title>
<g>
	<g id="Group-3" transform="translate(0.000000, 1.520880)">
		<g id="Clip-2">
		</g>
		<defs>
			<filter id="Adobe_OpacityMaskFilter" filterUnits="userSpaceOnUse" x="0" y="0.6" width="30.4" height="25.2">
				<feColorMatrix  type="matrix" values="1 0 0 0 0  0 1 0 0 0  0 0 1 0 0  0 0 0 1 0"/>
			</filter>
		</defs>
		<mask maskUnits="userSpaceOnUse" x="0" y="0.6" width="30.4" height="25.2" id="mask-2_1_">
			<g class="st0">
				<polygon id="path-1_1_" class="st1" points="0,0.6 30.4,0.6 30.4,25.9 0,25.9 				"/>
			</g>
		</mask>
		<path id="Fill-1" class="st2" d="M27.3,25.9H26L6.8,6.6v12.6c0,3.9,1.1,4.9,3,5.5v1H1.7v-1c1.9-0.5,3-1.5,3-5.5V5.8
			c0-1-0.4-1.5-1-2C2.1,2.3,1.4,1.8,0,1.7v-1h6.3c0.6,0,1,0.1,1.9,1L25.3,19V7.1c0-3.9-1.1-4.9-3-5.4v-1h8.1v1c-1.9,0.5-3,1.5-3,5.4
			V25.9z"/>
	</g>
	<path id="Fill-4" class="st3" d="M36.1,18.1l6.2-2.1c-0.4-2.1-1.4-3.3-2.9-3.3c-2.2,0-3.4,1.6-3.4,4.5
		C36.1,17.8,36.1,18.1,36.1,18.1 M40.3,27.6c-5.2,0-8.1-3.5-8.1-8.1c0-4.7,3.4-8.4,8.1-8.4c3.3,0,5.9,1.9,6.1,5.5l-10,3.3
		c0.6,3,2.4,5.4,5.4,5.4c1.6,0,2.9-0.7,3.8-1.7l0.9,0.7C45.4,26.1,43.5,27.6,40.3,27.6"/>
	<path id="Fill-6" class="st3" d="M59.9,17.7l-4.3,9.7h-1.8L49.3,15c-0.7-1.9-1.1-2.3-2.3-2.6v-1h8.4v1c-2,0.2-2.2,1.1-1.6,2.7
		l2.3,6.6l4.1-9.6h1.7l4.2,9.6l1.9-5.6c0.8-2.3,0.4-3.4-1.6-3.8v-0.9h6.4v0.9c-1.4,0.3-1.8,0.9-2.7,3.4l-4.1,11.7h-1.8L59.9,17.7z"
		/>
	<path id="Fill-8" class="st3" d="M80,27.6c-1.4,0-2.6-0.3-3.7-0.8l-1,0.7h-0.6l-1.3-5.2l0.9-0.3c2,2.6,3.8,4.1,6,4.1
		c1.6,0,2.5-0.8,2.5-1.9c0-1.8-1.6-2.2-4-3c-2.4-0.8-5-1.7-5-4.8c0-3.1,2.3-5.1,5.8-5.1c1.1,0,2.2,0.2,3.1,0.6l0.6-0.5h0.6l1.3,4.2
		l-0.9,0.4c-1.8-2-3.3-3.1-5-3.1c-1.3,0-2.1,0.9-2.1,1.8c0,1.7,1.7,2.2,4,3c2.4,0.8,5,1.7,5,4.8C86.2,25.5,83.4,27.6,80,27.6"/>
	<g id="Group-12" transform="translate(87.530303, 1.520880)">
		<g id="Clip-11">
		</g>
		<defs>
			<filter id="Adobe_OpacityMaskFilter_1_" filterUnits="userSpaceOnUse" x="1.3" y="-0.9" width="28.7" height="29.6">
				<feColorMatrix  type="matrix" values="1 0 0 0 0  0 1 0 0 0  0 0 1 0 0  0 0 0 1 0"/>
			</filter>
		</defs>
		<mask maskUnits="userSpaceOnUse" x="1.3" y="-0.9" width="28.7" height="29.6" id="mask-4_1_">
			<g class="st4">
				<polygon id="path-3_1_" class="st1" points="1.3,-0.9 30,-0.9 30,28.7 1.3,28.7 				"/>
			</g>
		</mask>
		<path id="Fill-10" class="st5" d="M14.5,18.7c1.8,0,3.1-1.1,3.6-4l1-5.8c-0.9-0.6-1.8-1-3-1c-3,0-4.4,4.1-4.4,7.5
			C11.8,17.6,12.6,18.7,14.5,18.7 M15.6,28.7c-8.5,0-14.3-5.5-14.3-13.5c0-8.6,6.4-16.1,15.6-16.1C25.4-0.9,30,3.7,30,10.4
			c0,7.5-4.4,10.4-7.3,10.4c-2.8,0-4.2-1.3-4.6-2.9c-1,2-2.8,3.3-5.2,3.3c-3.2,0-5-2.6-5-5.6c0-4.7,3.8-9.4,9.7-9.4
			c1.2,0,2.5,0.2,3.6,0.7l1.2-0.7h1.1l-1.9,10.5c-0.3,1.6,0.2,2.4,2,2.4c2.2,0,4.8-2.7,4.8-8.5c0-6-4.1-10-11.6-10
			c-8.3,0-14,6.8-14,14.7c0,7.2,5.2,12.2,12.8,12.2c3.5,0,6.5-1.2,8.8-3.1l0.8,1C22.8,27.4,19.6,28.7,15.6,28.7"/>
	</g>
</g>
<g>
	<path id="Fill-13" class="st6" d="M146.9,27.4h-1.4L126.3,8.1v12.6c0,3.9,1.1,4.9,3,5.5v1h-8.1v-1c1.9-0.5,3-1.5,3-5.5V7.3
		c0-1-0.4-1.5-1-2c-1.7-1.5-2.4-2-3.7-2.1v-1h6.3c0.6,0,1,0.1,1.9,1l17.1,17.3V8.6c0-3.9-1.1-4.9-3-5.4v-1h8.1v1
		c-1.9,0.5-3,1.5-3,5.4V27.4z"/>
	<path id="Fill-15" class="st6" d="M160.5,25.9c2.7,0,4-1.9,4-4.9c0-4-1-8.3-4.6-8.3c-2.8,0-4,1.9-4,4.9
		C155.9,21.6,156.9,25.9,160.5,25.9 M160,27.6c-5.4,0-8.3-3.7-8.3-8.1c0-4.6,3.2-8.5,8.6-8.5c5.4,0,8.3,3.7,8.3,8.1
		C168.7,23.6,165.5,27.6,160,27.6"/>
	<path id="Fill-17" class="st6" d="M179.9,27.2h-9v-1c1.9-0.3,2.2-0.7,2.2-2.6v-8.9h-2.2V14l4.8-3.2h1.5v3.3
		c1.2-1.9,2.5-3.2,4.1-3.2c1.5,0,2.3,0.9,2.3,2.4c0,1.7-1.1,2.6-2.2,2.6c-1.1,0-2-0.8-2-2.1c-0.7,0.6-1.3,1.5-2,2.7v6.8
		c0,2.1,0.3,2.5,2.6,2.9V27.2z"/>
	<path id="Fill-19" class="st6" d="M193,25.2c0.7,0,1.5-0.2,2.4-0.6l0.5,1c-1.6,1.2-3.5,1.9-5.4,1.9c-2.5,0-3.7-1.2-3.7-3.4V13.3
		h-2.4v-1.1l6-3.9h0.6v3.1h4.3v1.9H191v10.1C191,24.4,191.4,25.2,193,25.2"/>
	<path id="Fill-21" class="st6" d="M205.6,27.2H197v-1c1.9-0.3,2.2-0.7,2.2-2.6V4.9h-2.4V4.2l5.3-3.5h1.2v13.3c2-1.7,4-2.9,6.1-2.9
		c3.4,0,4.5,1.9,4.5,4.6v8c0,1.8,0.3,2.3,2.2,2.6v1h-8.6v-1c1.9-0.3,2.2-0.7,2.2-2.6V16c0-1.5-0.5-2.4-2.1-2.4
		c-1.5,0-2.7,0.8-4.3,2.2v7.7c0,1.8,0.3,2.3,2.2,2.6V27.2z"/>
	<path id="Fill-23" class="st6" d="M221.8,18.1L228,16c-0.4-2.1-1.4-3.3-2.9-3.3c-2.2,0-3.4,1.6-3.4,4.5
		C221.8,17.8,221.8,18.1,221.8,18.1 M226,27.6c-5.2,0-8.1-3.5-8.1-8.1c0-4.7,3.4-8.4,8.1-8.4c3.3,0,5.9,1.9,6.1,5.5l-10,3.3
		c0.6,3,2.4,5.4,5.4,5.4c1.6,0,2.9-0.7,3.8-1.7l0.9,0.7C231.1,26.1,229.2,27.6,226,27.6"/>
	<path id="Fill-25" class="st6" d="M239.9,25.3c0.8,0,1.7-0.3,2.6-1.1v-4.8c-3.9,1.1-4.7,1.9-4.7,3.6
		C237.8,24.6,238.6,25.3,239.9,25.3 M242.7,25.7c-1.6,1.2-3.3,1.9-4.9,1.9c-2.5,0-4-1.3-4-3.8c0-3.1,2.8-4.5,8.7-5.9v-3.3
		c0-1.3-0.7-1.8-2.1-1.8c-0.9,0-1.7,0.2-2.5,0.6c0.4,0.3,0.7,0.9,0.7,1.7c0,1-0.6,2.4-2.3,2.4c-1.2,0-1.9-0.9-1.9-1.9
		c0-2.1,3.1-4.4,7.4-4.4c3.8,0,4.9,1.5,4.9,4.1v8.9c0,1.1,0.6,1.3,2.2,1l0.3,0.9c-1,0.7-2.6,1.4-4,1.4
		C243.7,27.4,242.9,26.8,242.7,25.7"/>
	<path id="Fill-27" class="st6" d="M256.8,27.6c-1.4,0-2.6-0.3-3.7-0.8l-1,0.7h-0.6l-1.3-5.2l0.9-0.3c2,2.6,3.8,4.1,6,4.1
		c1.6,0,2.5-0.8,2.5-1.9c0-1.8-1.6-2.2-4-3c-2.4-0.8-5-1.7-5-4.8c0-3.1,2.3-5.1,5.8-5.1c1.1,0,2.2,0.2,3.1,0.6l0.6-0.5h0.6l1.3,4.2
		l-0.9,0.4c-1.8-2-3.3-3.1-5-3.1c-1.3,0-2.1,0.9-2.1,1.8c0,1.7,1.7,2.2,4,3c2.4,0.8,5,1.7,5,4.8C263,25.5,260.2,27.6,256.8,27.6"/>
	<path id="Fill-29" class="st6" d="M272.7,25.2c0.7,0,1.5-0.2,2.4-0.6l0.5,1c-1.6,1.2-3.5,1.9-5.4,1.9c-2.5,0-3.7-1.2-3.7-3.4V13.3
		h-2.4v-1.1l6-3.9h0.6v3.1h4.3v1.9h-4.3v10.1C270.7,24.4,271.1,25.2,272.7,25.2"/>
	<path id="Fill-31" class="st6" d="M280.7,18.1l6.2-2.1c-0.4-2.1-1.4-3.3-2.9-3.3c-2.2,0-3.4,1.6-3.4,4.5
		C280.7,17.8,280.7,18.1,280.7,18.1 M284.9,27.6c-5.2,0-8.1-3.5-8.1-8.1c0-4.7,3.4-8.4,8.1-8.4c3.3,0,5.9,1.9,6.1,5.5l-10,3.3
		c0.6,3,2.4,5.4,5.4,5.4c1.6,0,2.9-0.7,3.8-1.7l0.9,0.7C290,26.1,288.1,27.6,284.9,27.6"/>
	<path id="Fill-33" class="st6" d="M301.8,27.2h-9v-1c1.9-0.3,2.2-0.7,2.2-2.6v-8.9h-2.2V14l4.8-3.2h1.5v3.3
		c1.2-1.9,2.5-3.2,4.1-3.2c1.5,0,2.3,0.9,2.3,2.4c0,1.7-1.1,2.6-2.2,2.6c-1.1,0-2-0.8-2-2.1c-0.7,0.6-1.3,1.5-2,2.7v6.8
		c0,2.1,0.3,2.5,2.6,2.9V27.2z"/>
	<g id="Group-37" transform="translate(305.530303, 11.429971)">
		<g id="Clip-36">
		</g>
		<defs>
			<filter id="Adobe_OpacityMaskFilter_2_" filterUnits="userSpaceOnUse" x="0.8" y="-0.6" width="19.2" height="16.4">
				<feColorMatrix  type="matrix" values="1 0 0 0 0  0 1 0 0 0  0 0 1 0 0  0 0 0 1 0"/>
			</filter>
		</defs>
		<mask maskUnits="userSpaceOnUse" x="0.8" y="-0.6" width="19.2" height="16.4" id="mask-6_1_">
			<g class="st7">
				<polygon id="path-5_1_" class="st1" points="0.8,-0.6 20,-0.6 20,15.8 0.8,15.8 				"/>
			</g>
		</mask>
		<path id="Fill-35" class="st8" d="M9.5,15.8H0.8v-1c1.9-0.3,2.2-0.7,2.2-2.6V3.3H0.8V2.5l4.8-3.2h1.6v3.2c2-1.7,4-2.9,6.1-2.9
			c3.4,0,4.5,1.9,4.5,4.6v8c0,1.8,0.3,2.3,2.2,2.6v1h-8.6v-1c1.9-0.3,2.2-0.7,2.2-2.6V4.5c0-1.5-0.4-2.4-2.1-2.4
			c-1.2,0-2.6,0.8-4.3,2.2v7.7c0,1.8,0.3,2.3,2.2,2.6V15.8z"/>
	</g>
</g>
</svg>
