<svg class="nav__logo" width="326px" height="31px" viewBox="0 0 326 31" version="1.1" xmlns="http://www.w3.org/2000/svg" xmlns:xlink="http://www.w3.org/1999/xlink">
    <title>News@Northeastern</title>
    <defs>
        <polygon id="path-1" points="0 1.61798939 30.3574909 1.61798939 30.3574909 26.8564439 0 26.8564439"></polygon>
        <polygon id="path-3" points="1.33145152 0.130469697 30.0281788 0.130469697 30.0281788 29.7267773 1.33145152 29.7267773"></polygon>
        <polygon id="path-5" points="0.83599697 0.35210303 20.0246212 0.35210303 20.0246212 16.7747697 0.83599697 16.7747697"></polygon>
    </defs>
    <g id="Page-1" stroke="none" stroke-width="1" fill="none" fill-rule="evenodd">
        <g transform="translate(0.000000, -1.000000)">
          <g class="logo__northeastern">
            <g id="Group-3" transform="translate(0.000000, 1.520880)">
                <mask id="mask-2" fill="white">
                    <use xlink:href="#path-1"></use>
                </mask>
                <g id="Clip-2"></g>
                <path d="M27.3484303,26.8564439 L25.9661121,26.8564439 L6.77715758,7.56344394 L6.77715758,20.1843227 C6.77715758,24.1264894 7.88367273,25.1289591 9.78456667,25.6475348 L9.78456667,26.6846864 L1.69379394,26.6846864 L1.69379394,25.6475348 C3.59633939,25.1289591 4.70285455,24.1264894 4.70285455,20.1843227 L4.70285455,6.80374697 C4.70285455,5.83430758 4.25364242,5.28270152 3.73506667,4.79880758 C2.07529394,3.27776212 1.38330909,2.79386818 -0.000660606061,2.65514091 L-0.000660606061,1.61798939 L6.25858182,1.61798939 C6.8448697,1.61798939 7.2263697,1.72038333 8.15947576,2.65514091 L25.2741273,19.9762318 L25.2741273,8.08367121 C25.2741273,4.17618636 24.1676121,3.17371667 22.2667182,2.65514091 L22.2667182,1.61798939 L30.3574909,1.61798939 L30.3574909,2.65514091 C28.4549455,3.17371667 27.3484303,4.17618636 27.3484303,8.08367121 L27.3484303,26.8564439 Z" id="Fill-1" mask="url(#mask-2)"></path>
            </g>
            <path d="M36.120453,19.1473364 L42.3433621,17.0020182 C41.9288318,14.8583515 40.9610439,13.7518364 39.4399985,13.7518364 C37.1922864,13.7518364 36.0857712,15.3785788 36.0857712,18.2142303 C36.0857712,18.7674879 36.120453,19.1126545 36.120453,19.1473364 M40.3384227,28.5510636 C35.1526652,28.5510636 32.2129682,25.0250788 32.2129682,20.4256091 C32.2129682,15.7584273 35.6018773,12.0243515 40.2690591,12.0243515 C43.5539227,12.0243515 46.1814833,13.9599273 46.3895742,17.5222455 L36.3615742,20.8401394 C36.9841955,23.8838818 38.7133318,26.2339879 41.7901045,26.2339879 C43.3805136,26.2339879 44.7298015,25.5436545 45.6282258,24.5048515 L46.52665,25.1968364 C45.4201348,27.1340636 43.4845591,28.5510636 40.3384227,28.5510636" id="Fill-4"></path>
            <path d="M59.9367879,18.6617909 L55.6841364,28.3776545 L53.8856364,28.3776545 L49.3225,15.9648667 C48.665197,14.0986545 48.181303,13.6494424 47.0401061,13.4066697 L47.0401061,12.3695182 L55.4760455,12.3695182 L55.4760455,13.4066697 C53.4711061,13.6494424 53.297697,14.5478667 53.8509545,16.1399273 L56.1333485,22.7773667 L60.2125909,13.1292152 L61.9417273,13.1292152 L66.1613485,22.708003 L68.0275606,17.1407455 C68.7872576,14.8583515 68.4074091,13.7188061 66.4024697,13.3042758 L66.4024697,12.3695182 L72.8334697,12.3695182 L72.8334697,13.3042758 C71.4495,13.6147606 71.0349697,14.2357303 70.1712273,16.7262152 L66.0919848,28.3776545 L64.2934848,28.3776545 L59.9367879,18.6617909 Z" id="Fill-6"></path>
            <path d="M79.9815576,28.5515591 C78.5992394,28.5515591 77.353997,28.2410742 76.2821636,27.720847 L75.2796939,28.4128318 L74.7264364,28.4128318 L73.4118303,23.1923924 L74.3102545,22.8455742 C76.3515273,25.4747864 78.0806636,26.9264682 80.2920424,26.9264682 C81.9171333,26.9264682 82.7478455,26.0974076 82.7478455,24.9908924 C82.7478455,23.2254227 81.1227545,22.7415288 78.7363152,21.94715 C76.3168455,21.1527712 73.756997,20.254347 73.756997,17.1412409 C73.756997,14.0644682 76.0740727,12.0231955 79.6017091,12.0231955 C80.7065727,12.0231955 81.8130879,12.2676197 82.7478455,12.6458167 L83.3357848,12.1619227 L83.8890424,12.1619227 L85.1673152,16.3121803 L84.2688909,16.6920288 C82.4703909,14.6524076 80.9840273,13.6152561 79.2565424,13.6152561 C77.9072545,13.6152561 77.1805879,14.5136803 77.1805879,15.4467864 C77.1805879,17.1759227 78.8403606,17.6598167 81.1904667,18.455847 C83.6115879,19.2155439 86.2044667,20.1849833 86.2044667,23.2947864 C86.2044667,26.5449682 83.3704667,28.5515591 79.9815576,28.5515591" id="Fill-8"></path>
            <g id="Group-12" transform="translate(87.530303, 1.520880)">
                <mask id="mask-4" fill="white">
                    <use xlink:href="#path-3"></use>
                </mask>
                <g id="Clip-11"></g>
                <path d="M14.5386182,19.7004288 C16.3024364,19.7004288 17.6153909,18.5939136 18.1339667,15.6558682 L19.1727697,9.84583788 C18.3073758,9.22321667 17.3742697,8.84336818 16.1637091,8.84336818 C13.1909818,8.84336818 11.7723303,12.9589439 11.7723303,16.3808833 C11.7723303,18.5592318 12.6377242,19.7004288 14.5386182,19.7004288 M15.6104515,29.7267773 C7.10514848,29.7267773 1.33145152,24.195853 1.33145152,16.2091258 C1.33145152,7.56344394 7.7277697,0.129974242 16.8903758,0.129974242 C25.3956788,0.129974242 30.0281788,4.69476212 30.0281788,11.4032167 C30.0281788,18.9390803 25.6714818,21.7747318 22.7334364,21.7747318 C19.8977848,21.7747318 18.5501485,20.4254439 18.1686485,18.8697167 C17.131497,20.8763076 15.3676788,22.1198985 13.0175727,22.1198985 C9.80207273,22.1198985 7.96889091,19.5617015 7.96889091,16.5542924 C7.96889091,11.817747 11.7723303,7.11588333 17.6847545,7.11588333 C18.8606333,7.11588333 20.2099212,7.35700455 21.2817545,7.77153485 L22.4559818,7.11588333 L23.562497,7.11588333 L21.6962848,17.6608076 C21.4188303,19.2512167 21.9027242,20.0109136 23.7012242,20.0109136 C25.9142545,20.0109136 28.5071333,17.3156409 28.5071333,11.5056106 C28.5071333,5.52382273 24.4278909,1.47926212 16.8903758,1.47926212 C8.59151212,1.47926212 2.85249697,8.25542879 2.85249697,16.2091258 C2.85249697,23.3998227 8.00357273,28.3791409 15.6104515,28.3791409 C19.1380879,28.3791409 22.1108152,27.1669288 24.4278909,25.2660348 L25.2222697,26.2354742 C22.8028,28.3791409 19.6219818,29.7267773 15.6104515,29.7267773" id="Fill-10" mask="url(#mask-4)"></path>
            </g>
          </g>
          <g class="logo__news">
            <path d="M146.867095,28.3773242 L145.484777,28.3773242 L126.295823,9.08432424 L126.295823,21.705203 C126.295823,25.6473697 127.402338,26.6498394 129.303232,27.1684152 L129.303232,28.2055667 L121.212459,28.2055667 L121.212459,27.1684152 C123.115005,26.6498394 124.22152,25.6473697 124.22152,21.705203 L124.22152,8.32462727 C124.22152,7.35518788 123.772308,6.80358182 123.253732,6.31968788 C121.593959,4.79864242 120.901974,4.31474848 119.518005,4.17602121 L119.518005,3.1388697 L125.777247,3.1388697 C126.363535,3.1388697 126.745035,3.24126364 127.678141,4.17602121 L144.792792,21.4971121 L144.792792,9.60455152 C144.792792,5.69706667 143.686277,4.69459697 141.785383,4.17602121 L141.785383,3.1388697 L149.876156,3.1388697 L149.876156,4.17602121 C147.973611,4.69459697 146.867095,5.69706667 146.867095,9.60455152 L146.867095,28.3773242 Z" id="Fill-13"></path>
            <path d="M160.479214,26.8919515 C163.21082,26.8919515 164.525426,24.9910576 164.525426,21.9803455 C164.525426,18.0051485 163.488274,13.6484515 159.960638,13.6484515 C157.19435,13.6484515 155.916077,15.550997 155.916077,18.5947394 C155.916077,22.5699364 156.918547,26.8919515 160.479214,26.8919515 M160.030002,28.5517242 C154.670835,28.5517242 151.732789,24.8523303 151.732789,20.4956333 C151.732789,15.9308455 154.946638,12.0233606 160.37682,12.0233606 C165.769017,12.0233606 168.708714,15.6897242 168.708714,20.0794515 C168.708714,24.6442394 165.458532,28.5517242 160.030002,28.5517242" id="Fill-15"></path>
            <path d="M179.938521,28.2047409 L170.949324,28.2047409 L170.949324,27.1675894 C172.8849,26.8917864 173.195385,26.4425742 173.195385,24.6093924 L173.195385,15.6895591 L170.949324,15.6895591 L170.949324,14.9628924 L175.720552,11.7820742 L177.206915,11.7820742 L177.206915,15.0999682 C178.417476,13.1990742 179.662718,11.8514379 181.320839,11.8514379 C182.774173,11.8514379 183.603233,12.7515136 183.603233,14.2362258 C183.603233,15.9653621 182.496718,16.8654379 181.355521,16.8654379 C180.249006,16.8654379 179.3159,16.0347258 179.3159,14.7548015 C178.623915,15.3427409 178.037627,16.2428167 177.345642,17.4517258 L177.345642,24.2989076 C177.345642,26.3732106 177.656127,26.8224227 179.938521,27.1675894 L179.938521,28.2047409 Z" id="Fill-17"></path>
            <path d="M193.003823,26.2339879 C193.728838,26.2339879 194.524868,26.0275485 195.423292,25.6477 L195.941868,26.6832 C194.316777,27.8937606 192.450565,28.5510636 190.549671,28.5510636 C188.093868,28.5510636 186.883308,27.3751848 186.883308,25.1968364 L186.883308,14.2720636 L184.463838,14.2720636 L184.463838,13.1985788 L190.445626,9.25806364 L191.033565,9.25806364 L191.033565,12.3695182 L195.284565,12.3695182 L195.284565,14.2720636 L191.033565,14.2720636 L191.033565,24.3330939 C191.033565,25.4396091 191.448095,26.2339879 193.003823,26.2339879" id="Fill-19"></path>
            <path d="M205.619252,28.2047409 L196.975221,28.2047409 L196.975221,27.1675894 C198.910797,26.8917864 199.222933,26.4425742 199.222933,24.6093924 L199.222933,5.90433182 L196.801812,5.90433182 L196.801812,5.17931667 L202.126297,1.6516803 L203.371539,1.6516803 L203.371539,14.9282106 C205.343448,13.2684379 207.381418,12.0231955 209.422691,12.0231955 C212.809948,12.0231955 213.916464,13.9257409 213.916464,16.5879833 L213.916464,24.6093924 C213.916464,26.4425742 214.2286,26.8917864 216.164176,27.1675894 L216.164176,28.2047409 L207.520145,28.2047409 L207.520145,27.1675894 C209.457373,26.8917864 209.767858,26.4425742 209.767858,24.6093924 L209.767858,16.9678318 C209.767858,15.4814682 209.283964,14.6160742 207.658873,14.6160742 C206.205539,14.6160742 204.99663,15.3774227 203.371539,16.8654379 L203.371539,24.6093924 C203.371539,26.4425742 203.648994,26.8917864 205.619252,27.1675894 L205.619252,28.2047409 Z" id="Fill-21"></path>
            <path d="M221.792539,19.1473364 L228.015448,17.0020182 C227.600918,14.8583515 226.63313,13.7518364 225.112085,13.7518364 C222.864373,13.7518364 221.757858,15.3785788 221.757858,18.2142303 C221.757858,18.7674879 221.792539,19.1126545 221.792539,19.1473364 M226.010509,28.5510636 C220.824752,28.5510636 217.885055,25.0250788 217.885055,20.4256091 C217.885055,15.7584273 221.273964,12.0243515 225.941145,12.0243515 C229.226009,12.0243515 231.85357,13.9599273 232.061661,17.5222455 L222.033661,20.8401394 C222.656282,23.8838818 224.385418,26.2339879 227.462191,26.2339879 C229.0526,26.2339879 230.401888,25.5436545 231.300312,24.5048515 L232.198736,25.1968364 C231.092221,27.1340636 229.156645,28.5510636 226.010509,28.5510636" id="Fill-23"></path>
            <path d="M239.87052,26.2694955 C240.69958,26.2694955 241.530292,25.9226773 242.463398,25.1976621 L242.463398,20.3570712 C238.555914,21.427253 237.796217,22.2249348 237.796217,23.9177379 C237.796217,25.5775106 238.555914,26.2694955 239.87052,26.2694955 M242.70452,26.6840258 C241.148792,27.8599045 239.386626,28.5518894 237.796217,28.5518894 C235.305732,28.5518894 233.750005,27.2372833 233.750005,24.7831318 C233.750005,21.6353439 236.516292,20.3207379 242.463398,18.8360258 L242.463398,15.5164803 C242.463398,14.2018742 241.771414,13.6832985 240.319732,13.6832985 C239.455989,13.6832985 238.625277,13.8913894 237.796217,14.3059197 C238.210747,14.6527379 238.48655,15.2059955 238.48655,15.9656924 C238.48655,16.9681621 237.86558,18.3521318 236.171126,18.3521318 C234.960565,18.3521318 234.26858,17.4883894 234.26858,16.4495864 C234.26858,14.3059197 237.380035,12.0235258 241.632686,12.0235258 C245.403095,12.0235258 246.577323,13.4768591 246.577323,16.1391015 L246.577323,25.0589348 C246.577323,26.16545 247.165262,26.4065712 248.825035,26.0977379 L249.13552,27.0291924 C248.098368,27.7211773 246.577323,28.4131621 245.125641,28.4131621 C243.708641,28.4131621 242.947292,27.7905409 242.70452,26.6840258" id="Fill-25"></path>
            <path d="M256.805817,28.5515591 C255.423498,28.5515591 254.178256,28.2410742 253.106423,27.720847 L252.103953,28.4128318 L251.550695,28.4128318 L250.236089,23.1923924 L251.134514,22.8455742 C253.175786,25.4747864 254.904923,26.9264682 257.116302,26.9264682 C258.741392,26.9264682 259.572105,26.0974076 259.572105,24.9908924 C259.572105,23.2254227 257.947014,22.7415288 255.560574,21.94715 C253.141105,21.1527712 250.581256,20.254347 250.581256,17.1412409 C250.581256,14.0644682 252.898332,12.0231955 256.425968,12.0231955 C257.530832,12.0231955 258.637347,12.2676197 259.572105,12.6458167 L260.160044,12.1619227 L260.713302,12.1619227 L261.991574,16.3121803 L261.09315,16.6920288 C259.29465,14.6524076 257.808286,13.6152561 256.07915,13.6152561 C254.731514,13.6152561 254.004847,14.5136803 254.004847,15.4467864 C254.004847,17.1759227 255.66462,17.6598167 258.016377,18.455847 C260.435847,19.2155439 263.028726,20.1849833 263.028726,23.2947864 C263.028726,26.5449682 260.194726,28.5515591 256.805817,28.5515591" id="Fill-27"></path>
            <path d="M272.670932,26.2339879 C273.395947,26.2339879 274.191977,26.0275485 275.090402,25.6477 L275.608977,26.6832 C273.983886,27.8937606 272.117674,28.5510636 270.215129,28.5510636 C267.760977,28.5510636 266.550417,27.3751848 266.550417,25.1968364 L266.550417,14.2720636 L264.130947,14.2720636 L264.130947,13.1985788 L270.112735,9.25806364 L270.700674,9.25806364 L270.700674,12.3695182 L274.951674,12.3695182 L274.951674,14.2720636 L270.700674,14.2720636 L270.700674,24.3330939 C270.700674,25.4396091 271.115205,26.2339879 272.670932,26.2339879" id="Fill-29"></path>
            <path d="M280.722894,19.1473364 L286.945803,17.0020182 C286.531273,14.8583515 285.563485,13.7518364 284.042439,13.7518364 C281.794727,13.7518364 280.688212,15.3785788 280.688212,18.2142303 C280.688212,18.7674879 280.722894,19.1126545 280.722894,19.1473364 M284.940864,28.5510636 C279.755106,28.5510636 276.815409,25.0250788 276.815409,20.4256091 C276.815409,15.7584273 280.204318,12.0243515 284.8715,12.0243515 C288.156364,12.0243515 290.783924,13.9599273 290.992015,17.5222455 L280.964015,20.8401394 C281.586636,23.8838818 283.315773,26.2339879 286.392545,26.2339879 C287.982955,26.2339879 289.332242,25.5436545 290.230667,24.5048515 L291.129091,25.1968364 C290.022576,27.1340636 288.087,28.5510636 284.940864,28.5510636" id="Fill-31"></path>
            <path d="M301.842635,28.2047409 L292.853438,28.2047409 L292.853438,27.1675894 C294.789014,26.8917864 295.099498,26.4425742 295.099498,24.6093924 L295.099498,15.6895591 L292.853438,15.6895591 L292.853438,14.9628924 L297.624665,11.7820742 L299.111029,11.7820742 L299.111029,15.0999682 C300.321589,13.1990742 301.566832,11.8514379 303.224953,11.8514379 C304.678286,11.8514379 305.507347,12.7515136 305.507347,14.2362258 C305.507347,15.9653621 304.400832,16.8654379 303.259635,16.8654379 C302.15312,16.8654379 301.220014,16.0347258 301.220014,14.7548015 C300.528029,15.3427409 299.941741,16.2428167 299.249756,17.4517258 L299.249756,24.2989076 C299.249756,26.3732106 299.560241,26.8224227 301.842635,27.1675894 L301.842635,28.2047409 Z" id="Fill-33"></path>
            <g id="Group-37" transform="translate(305.530303, 11.429971)">
                <mask id="mask-6" fill="white">
                    <use xlink:href="#path-5"></use>
                </mask>
                <g id="Clip-36"></g>
                <path d="M9.48002727,16.7747697 L0.83599697,16.7747697 L0.83599697,15.7376182 C2.77157273,15.4618152 3.08370909,15.012603 3.08370909,13.1794212 L3.08370909,4.25958788 L0.83599697,4.25958788 L0.83599697,3.53292121 L5.60722424,0.35210303 L7.16295152,0.35210303 L7.16295152,3.53292121 C9.16954242,1.83846667 11.2091636,0.593224242 13.2834667,0.593224242 C16.6360424,0.593224242 17.7772394,2.4957697 17.7772394,5.15801212 L17.7772394,13.1794212 C17.7772394,15.012603 18.0893758,15.4618152 20.0249515,15.7376182 L20.0249515,16.7747697 L11.3809212,16.7747697 L11.3809212,15.7376182 C13.3181485,15.4618152 13.6286333,15.012603 13.6286333,13.1794212 L13.6286333,5.53786061 C13.6286333,4.05149697 13.1794212,3.18610303 11.4849667,3.18610303 C10.3090879,3.18610303 8.89208788,3.94745152 7.23231515,5.43546667 L7.23231515,13.1794212 C7.23231515,15.012603 7.54445152,15.4618152 9.48002727,15.7376182 L9.48002727,16.7747697 Z" id="Fill-35" mask="url(#mask-6)"></path>
            </g>
        </g>
    </g>
  </g>
</svg>
